<svg width="1011" height="255" viewBox="0 0 1011 255" fill="none" xmlns="http://www.w3.org/2000/svg">
<path d="M56.066 150.852C48.256 150.852 41.44 149.716 35.618 147.444C29.938 145.03 25.039 141.906 20.921 138.072C16.803 134.096 13.395 129.552 10.697 124.44C7.99901 119.328 5.86901 114.003 4.30701 108.465C2.74501 102.785 1.68001 97.1049 1.11201 91.4249C0.54401 85.7449 0.26001 80.4199 0.26001 75.4499C0.26001 70.4799 0.54401 65.1549 1.11201 59.4749C1.68001 53.7949 2.74501 48.1859 4.30701 42.6479C5.86901 36.9679 7.92801 31.5719 10.484 26.4599C13.182 21.3479 16.59 16.8749 20.708 13.0409C24.826 9.06486 29.796 5.94086 35.618 3.66886C41.44 1.25485 48.256 0.0478516 56.066 0.0478516C62.314 0.0478516 67.639 0.899853 72.041 2.60386C76.443 4.16585 80.135 6.08285 83.117 8.35486C86.241 10.6269 88.797 13.0409 90.785 15.5969C92.915 18.0109 94.69 20.1409 96.11 21.9869V46.4819C93.838 41.3699 91.566 36.1159 89.294 30.7199C87.022 25.3239 84.395 20.4249 81.413 16.0229C78.431 11.6209 74.952 8.07086 70.976 5.37286C67 2.53285 62.03 1.18385 56.066 1.32586C50.386 1.46786 44.99 3.17186 39.878 6.43786C34.908 9.56186 30.577 14.2479 26.885 20.4959C23.193 26.7439 20.211 34.4829 17.939 43.7129C15.809 52.8009 14.744 63.3799 14.744 75.4499C14.744 99.7319 18.152 118.192 24.968 130.83C31.926 143.326 42.292 149.574 56.066 149.574C62.03 149.574 67 148.225 70.976 145.527C74.952 142.687 78.431 139.066 81.413 134.664C84.395 130.262 87.022 125.434 89.294 120.18C91.566 114.784 102.41 81.3261 104.682 76.2141L110 104.418C108.58 106.264 92.915 132.96 90.785 135.516C88.797 137.93 86.241 140.273 83.117 142.545C80.135 144.817 76.443 146.805 72.041 148.509C67.639 150.071 62.314 150.852 56.066 150.852Z" fill="white"/>
<path d="M157.291 150.852C149.055 150.852 141.671 148.864 135.139 144.888C128.749 140.912 123.282 135.516 118.738 128.7C114.194 121.884 110.715 113.932 108.301 104.844C105.887 95.6139 104.68 85.8159 104.68 75.4499C104.68 64.9419 105.887 55.1439 108.301 46.0559C110.857 36.8259 114.407 28.8029 118.951 21.9869C123.495 15.1709 128.962 9.84585 135.352 6.01185C141.884 2.03585 149.197 0.0478516 157.291 0.0478516C165.385 0.0478516 172.627 2.03585 179.017 6.01185C185.549 9.84585 191.087 15.1709 195.631 21.9869C200.175 28.8029 203.654 36.8259 206.068 46.0559C208.624 55.1439 209.902 64.9419 209.902 75.4499C209.902 85.8159 208.695 95.6139 206.281 104.844C203.867 113.932 200.388 121.884 195.844 128.7C191.3 135.516 185.762 140.912 179.23 144.888C172.84 148.864 165.527 150.852 157.291 150.852ZM157.291 1.32586C150.475 1.32586 144.653 3.31386 139.825 7.28986C134.997 11.1239 131.021 16.3779 127.897 23.0519C124.915 29.7259 122.714 37.6069 121.294 46.6949C119.874 55.6409 119.164 65.2259 119.164 75.4499C119.164 85.6739 119.874 95.3299 121.294 104.418C122.714 113.364 124.915 121.174 127.897 127.848C131.021 134.522 134.997 139.847 139.825 143.823C144.653 147.657 150.475 149.574 157.291 149.574C164.107 149.574 169.929 147.657 174.757 143.823C179.727 139.847 183.703 134.522 186.685 127.848C189.809 121.174 192.081 113.364 193.501 104.418C194.921 95.3299 195.631 85.6739 195.631 75.4499C195.631 65.2259 194.921 55.6409 193.501 46.6949C192.081 37.6069 189.809 29.7259 186.685 23.0519C183.561 16.3779 179.585 11.1239 174.757 7.28986C169.929 3.31386 164.107 1.32586 157.291 1.32586Z" fill="white"/>
<path d="M274.266 150.852C266.456 150.852 259.64 149.716 253.818 147.444C248.138 145.03 243.239 141.906 239.121 138.072C235.003 134.096 231.595 129.552 228.897 124.44C226.199 119.328 224.069 114.003 222.507 108.465C220.945 102.785 219.88 97.1049 219.312 91.4249C218.744 85.7449 218.46 80.4199 218.46 75.4499C218.46 70.4799 218.744 65.1549 219.312 59.4749C219.88 53.7949 220.945 48.1859 222.507 42.6479C224.069 36.9679 226.128 31.5719 228.684 26.4599C231.382 21.3479 234.79 16.8749 238.908 13.0409C243.026 9.06486 247.996 5.94086 253.818 3.66886C259.64 1.25485 266.456 0.0478516 274.266 0.0478516C280.514 0.0478516 285.839 0.899853 290.241 2.60386C294.643 4.16585 298.335 6.08285 301.317 8.35486C304.441 10.6269 306.997 13.0409 308.985 15.5969C311.115 18.0109 312.89 20.1409 314.31 21.9869V46.4819C312.038 41.3699 309.766 36.1159 307.494 30.7199C305.222 25.3239 302.595 20.4249 299.613 16.0229C296.631 11.6209 293.152 8.07086 289.176 5.37286C285.2 2.53285 280.23 1.18385 274.266 1.32586C268.586 1.46786 263.19 3.17186 258.078 6.43786C253.108 9.56186 248.777 14.2479 245.085 20.4959C241.393 26.7439 238.411 34.4829 236.139 43.7129C234.009 52.8009 232.944 63.3799 232.944 75.4499C232.944 99.7319 236.352 118.192 243.168 130.83C250.126 143.326 260.492 149.574 274.266 149.574C280.23 149.574 285.2 148.225 289.176 145.527C293.152 142.687 296.631 139.066 299.613 134.664C302.595 130.262 305.222 125.434 307.494 120.18C309.766 114.784 321.041 91.112 323.313 86L329.439 114C338.442 93.552 311.115 132.96 308.985 135.516C306.997 137.93 304.441 140.273 301.317 142.545C298.335 144.817 294.643 146.805 290.241 148.509C285.839 150.071 280.514 150.852 274.266 150.852Z" fill="white"/>
<path d="M375.491 150.852C367.255 150.852 359.871 148.864 353.339 144.888C346.949 140.912 341.482 135.516 336.938 128.7C332.394 121.884 328.915 113.932 326.501 104.844C324.087 95.6139 322.88 85.8159 322.88 75.4499C322.88 64.9419 324.087 55.1439 326.501 46.0559C329.057 36.8259 332.607 28.8029 337.151 21.9869C341.695 15.1709 347.162 9.84585 353.552 6.01185C360.084 2.03585 367.397 0.0478516 375.491 0.0478516C383.585 0.0478516 390.827 2.03585 397.217 6.01185C403.749 9.84585 409.287 15.1709 413.831 21.9869C418.375 28.8029 421.854 36.8259 424.268 46.0559C426.824 55.1439 428.102 64.9419 428.102 75.4499C428.102 85.8159 426.895 95.6139 424.481 104.844C422.067 113.932 418.588 121.884 414.044 128.7C409.5 135.516 403.962 140.912 397.43 144.888C391.04 148.864 383.727 150.852 375.491 150.852ZM375.491 1.32586C368.675 1.32586 362.853 3.31386 358.025 7.28986C353.197 11.1239 349.221 16.3779 346.097 23.0519C343.115 29.7259 340.914 37.6069 339.494 46.6949C338.074 55.6409 337.364 65.2259 337.364 75.4499C337.364 85.6739 338.074 95.3299 339.494 104.418C340.914 113.364 343.115 121.174 346.097 127.848C349.221 134.522 353.197 139.847 358.025 143.823C362.853 147.657 368.675 149.574 375.491 149.574C382.307 149.574 388.129 147.657 392.957 143.823C397.927 139.847 401.903 134.522 404.885 127.848C408.009 121.174 410.281 113.364 411.701 104.418C413.121 95.3299 413.831 85.6739 413.831 75.4499C413.831 65.2259 413.121 55.6409 411.701 46.6949C410.281 37.6069 408.009 29.7259 404.885 23.0519C401.761 16.3779 397.785 11.1239 392.957 7.28986C388.129 3.31386 382.307 1.32586 375.491 1.32586Z" fill="white"/>
<path d="M418.066 254.852C410.256 254.852 403.44 253.716 397.618 251.444C391.938 249.03 387.039 245.906 382.921 242.072C378.803 238.096 375.395 233.552 372.697 228.44C369.999 223.328 367.869 218.003 366.307 212.465C364.745 206.785 363.68 201.105 363.112 195.425C362.544 189.745 362.26 184.42 362.26 179.45C362.26 174.48 362.544 169.155 363.112 163.475C363.68 157.795 364.745 152.186 366.307 146.648C367.869 140.968 369.928 135.572 372.484 130.46C375.182 125.348 378.59 120.875 382.708 117.041C386.826 113.065 391.796 109.941 397.618 107.669C403.44 105.255 410.256 104.048 418.066 104.048C424.314 104.048 429.639 104.9 434.041 106.604C438.443 108.166 442.135 110.083 445.117 112.355C448.241 114.627 450.797 117.041 452.785 119.597C454.915 122.011 456.69 124.141 458.11 125.987V150.482C455.838 145.37 453.566 140.116 451.294 134.72C449.022 129.324 446.395 124.425 443.413 120.023C440.431 115.621 436.952 112.071 432.976 109.373C429 106.533 424.03 105.184 418.066 105.326C412.386 105.468 406.99 107.172 401.878 110.438C396.908 113.562 392.577 118.248 388.885 124.496C385.193 130.744 382.211 138.483 379.939 147.713C377.809 156.801 376.744 167.38 376.744 179.45C376.744 203.732 380.152 222.192 386.968 234.83C393.926 247.326 404.292 253.574 418.066 253.574C424.03 253.574 429 252.225 432.976 249.527C436.952 246.687 440.431 243.066 443.413 238.664C446.395 234.262 449.022 229.434 451.294 224.18C453.566 218.784 455.838 213.53 458.11 208.418V232.913C456.69 234.759 454.915 236.96 452.785 239.516C450.797 241.93 448.241 244.273 445.117 246.545C442.135 248.817 438.443 250.805 434.041 252.509C429.639 254.071 424.314 254.852 418.066 254.852Z" fill="white"/>
<path d="M500.76 254H466.68V252.935C469.094 252.935 470.94 252.722 472.218 252.296C473.638 251.728 474.632 250.876 475.2 249.74C475.91 248.462 476.265 246.829 476.265 244.841C476.407 242.711 476.478 240.155 476.478 237.173V121.727C476.478 118.745 476.407 116.26 476.265 114.272C476.265 112.284 475.91 110.651 475.2 109.373C474.632 108.095 473.638 107.243 472.218 106.817C470.94 106.249 469.094 105.965 466.68 105.965V104.9H500.76V105.965C498.346 105.965 496.429 106.249 495.009 106.817C493.731 107.385 492.737 108.308 492.027 109.586C491.459 110.722 491.104 112.284 490.962 114.272C490.962 116.26 490.962 118.745 490.962 121.727V178.385H553.158V121.727C553.158 118.745 553.087 116.26 552.945 114.272C552.945 112.284 552.59 110.651 551.88 109.373C551.312 108.095 550.318 107.243 548.898 106.817C547.62 106.249 545.703 105.965 543.147 105.965V104.9H577.44V105.965C574.884 105.965 572.896 106.249 571.476 106.817C570.198 107.385 569.204 108.308 568.494 109.586C567.926 110.722 567.571 112.284 567.429 114.272C567.429 116.26 567.429 118.745 567.429 121.727V237.173C567.429 240.155 567.429 242.64 567.429 244.628C567.571 246.616 567.926 248.249 568.494 249.527C569.204 250.805 570.198 251.728 571.476 252.296C572.896 252.722 574.884 252.935 577.44 252.935V254H543.147V252.935C545.703 252.935 547.62 252.722 548.898 252.296C550.318 251.728 551.312 250.876 551.88 249.74C552.59 248.462 552.945 246.829 552.945 244.841C553.087 242.711 553.158 240.155 553.158 237.173V180.302H490.962V237.173C490.962 240.155 490.962 242.64 490.962 244.628C491.104 246.616 491.459 248.249 492.027 249.527C492.737 250.805 493.731 251.728 495.009 252.296C496.429 252.722 498.346 252.935 500.76 252.935V254Z" fill="white"/>
<path d="M607.807 254H585.868L586.081 252.935C588.495 252.935 590.412 252.722 591.832 252.296C593.394 251.728 594.601 250.876 595.453 249.74C596.447 248.462 597.228 246.829 597.796 244.841C598.506 242.711 599.216 240.155 599.926 237.173L629.107 121.727C629.817 118.745 630.385 116.26 630.811 114.272C631.237 112.284 631.308 110.651 631.024 109.373C630.74 108.095 629.959 107.243 628.681 106.817C627.545 106.249 625.699 105.965 623.143 105.965L623.569 104.9H648.49L681.718 237.173C682.428 240.155 683.067 242.711 683.635 244.841C684.345 246.829 685.126 248.462 685.978 249.74C686.972 250.876 688.179 251.728 689.599 252.296C691.161 252.722 693.149 252.935 695.563 252.935L695.776 254H661.696L661.483 252.935C663.897 252.935 665.672 252.722 666.808 252.296C668.086 251.728 668.867 250.805 669.151 249.527C669.577 248.249 669.577 246.616 669.151 244.628C668.725 242.64 668.157 240.155 667.447 237.173L653.176 180.302H616.327L602.056 237.173C601.346 240.155 600.778 242.64 600.352 244.628C599.926 246.616 599.855 248.249 600.139 249.527C600.565 250.805 601.346 251.728 602.482 252.296C603.76 252.722 605.606 252.935 608.02 252.935L607.807 254ZM616.966 178.385H652.537L635.284 109.799C634.432 111.077 633.722 112.71 633.154 114.698C632.586 116.544 631.947 118.887 631.237 121.727L616.966 178.385Z" fill="white"/>
<path d="M726.164 254H704.225V252.935C706.639 252.935 708.485 252.722 709.763 252.296C711.183 251.728 712.177 250.876 712.745 249.74C713.455 248.462 713.881 246.829 714.023 244.841C714.165 242.711 714.236 240.155 714.236 237.173V121.727C714.236 118.745 714.165 116.26 714.023 114.272C713.881 112.284 713.455 110.651 712.745 109.373C712.177 108.095 711.183 107.243 709.763 106.817C708.485 106.249 706.639 105.965 704.225 105.965V104.9H728.72L795.602 228.014V121.727C795.602 118.745 795.531 116.26 795.389 114.272C795.389 112.284 795.034 110.651 794.324 109.373C793.756 108.095 792.762 107.243 791.342 106.817C790.064 106.249 788.218 105.965 785.804 105.965V104.9H807.53V105.965C805.116 105.965 803.199 106.249 801.779 106.817C800.501 107.385 799.507 108.308 798.797 109.586C798.229 110.722 797.874 112.284 797.732 114.272C797.732 116.26 797.732 118.745 797.732 121.727V254.852H796.028C781.686 228.44 768.764 204.726 757.262 183.71C752.434 174.764 747.606 166.031 742.778 157.511C738.092 148.849 733.903 141.11 730.211 134.294C726.519 127.478 723.466 121.94 721.052 117.68C718.638 113.42 717.289 111.148 717.005 110.864C716.579 112 716.295 113.491 716.153 115.337C716.153 117.183 716.153 119.313 716.153 121.727V237.173C716.153 240.155 716.224 242.64 716.366 244.628C716.508 246.616 716.863 248.249 717.431 249.527C718.141 250.805 719.135 251.728 720.413 252.296C721.833 252.722 723.75 252.935 726.164 252.935V254Z" fill="white"/>
<path d="M908.788 254H816.133V252.935C818.547 252.935 820.393 252.722 821.671 252.296C823.091 251.728 824.085 250.876 824.653 249.74C825.363 248.462 825.718 246.829 825.718 244.841C825.86 242.711 825.931 240.155 825.931 237.173V121.727C825.931 118.745 825.86 116.26 825.718 114.272C825.718 112.284 825.363 110.651 824.653 109.373C824.085 108.095 823.091 107.243 821.671 106.817C820.393 106.249 818.547 105.965 816.133 105.965V104.9H904.315V123.218H903.037C902.895 119.952 902.043 117.041 900.481 114.485C899.061 112.355 896.789 110.438 893.665 108.734C890.683 106.888 886.21 105.965 880.246 105.965H840.415V164.966H864.91C869.028 164.966 872.152 164.469 874.282 163.475C876.412 162.339 877.903 161.132 878.755 159.854C879.891 158.292 880.459 156.588 880.459 154.742H881.737V176.255H880.459C880.459 174.409 879.891 172.705 878.755 171.143C877.903 169.865 876.412 168.729 874.282 167.735C872.152 166.599 869.028 166.031 864.91 166.031H840.415L839.989 252.935H884.719C890.683 252.935 895.156 252.083 898.138 250.379C901.12 248.533 903.321 246.474 904.741 244.202C906.445 241.788 907.368 238.948 907.51 235.682H908.788V254Z" fill="white"/>
<path d="M1010.09 254H917.225V252.935C919.639 252.935 921.485 252.722 922.763 252.296C924.183 251.728 925.177 250.876 925.745 249.74C926.455 248.462 926.81 246.829 926.81 244.841C926.952 242.711 927.023 240.155 927.023 237.173V121.727C927.023 118.745 926.952 116.26 926.81 114.272C926.81 112.284 926.455 110.651 925.745 109.373C925.177 108.095 924.183 107.243 922.763 106.817C921.485 106.249 919.639 105.965 917.225 105.965V104.9H951.305V105.965C948.891 105.965 946.974 106.249 945.554 106.817C944.276 107.385 943.282 108.308 942.572 109.586C942.004 110.722 941.649 112.284 941.507 114.272C941.507 116.26 941.507 118.745 941.507 121.727V252.935H986.024C991.988 252.935 996.461 252.083 999.443 250.379C1002.57 248.533 1004.84 246.474 1006.26 244.202C1007.82 241.788 1008.67 238.948 1008.81 235.682H1010.09V254Z" fill="white"/>
<path d="M25.3 236.6C25.3 239.033 25 241.317 24.4 243.45C23.8333 245.55 23 247.383 21.9 248.95C20.8 250.517 19.4667 251.75 17.9 252.65C16.3667 253.55 14.6333 254 12.7 254H1V253.75C1.56667 253.75 2 253.7 2.3 253.6C2.63333 253.467 2.86667 253.267 3 253C3.16667 252.7 3.25 252.317 3.25 251.85C3.28333 251.35 3.3 250.75 3.3 250.05V222.95C3.3 222.25 3.28333 221.667 3.25 221.2C3.25 220.733 3.16667 220.35 3 220.05C2.86667 219.75 2.63333 219.55 2.3 219.45C2 219.317 1.56667 219.25 1 219.25V219H12.7C14.6 219 16.3167 219.467 17.85 220.4C19.4167 221.3 20.75 222.55 21.85 224.15C22.95 225.75 23.8 227.617 24.4 229.75C25 231.883 25.3 234.167 25.3 236.6ZM6.7 250.05C6.7 250.75 6.7 251.333 6.7 251.8C6.73333 252.233 6.81667 252.6 6.95 252.9C7.08333 253.167 7.28333 253.367 7.55 253.5C7.85 253.633 8.26667 253.7 8.8 253.7H12.7C14.3 253.7 15.6833 253.267 16.85 252.4C18.0167 251.5 18.9667 250.283 19.7 248.75C20.4667 247.183 21.0167 245.367 21.35 243.3C21.7167 241.233 21.9 239 21.9 236.6C21.9 234.2 21.7167 231.95 21.35 229.85C21.0167 227.75 20.4667 225.917 19.7 224.35C18.9667 222.783 18.0167 221.55 16.85 220.65C15.6833 219.75 14.3 219.3 12.7 219.3H9C8.43333 219.3 7.98333 219.367 7.65 219.5C7.35 219.6 7.11667 219.8 6.95 220.1C6.81667 220.367 6.73333 220.733 6.7 221.2C6.7 221.667 6.7 222.25 6.7 222.95V250.05Z" fill="white"/>
<path d="M61.5684 254H39.8184V253.75C40.385 253.75 40.8184 253.7 41.1184 253.6C41.4517 253.467 41.685 253.267 41.8184 253C41.985 252.7 42.0684 252.317 42.0684 251.85C42.1017 251.35 42.1184 250.75 42.1184 250.05V222.95C42.1184 222.25 42.1017 221.667 42.0684 221.2C42.0684 220.733 41.985 220.35 41.8184 220.05C41.685 219.75 41.4517 219.55 41.1184 219.45C40.8184 219.317 40.385 219.25 39.8184 219.25V219H60.5184V223.3H60.2184C60.185 222.533 59.985 221.85 59.6184 221.25C59.285 220.75 58.7517 220.3 58.0184 219.9C57.3184 219.467 56.2684 219.25 54.8684 219.25H45.5184V233.1H51.2684C52.235 233.1 52.9684 232.983 53.4684 232.75C53.9684 232.483 54.3184 232.2 54.5184 231.9C54.785 231.533 54.9184 231.133 54.9184 230.7H55.2184V235.75H54.9184C54.9184 235.317 54.785 234.917 54.5184 234.55C54.3184 234.25 53.9684 233.983 53.4684 233.75C52.9684 233.483 52.235 233.35 51.2684 233.35H45.5184L45.4184 253.75H55.9184C57.3184 253.75 58.3684 253.55 59.0684 253.15C59.7684 252.717 60.285 252.233 60.6184 251.7C61.0184 251.133 61.235 250.467 61.2684 249.7H61.5684V254Z" fill="white"/>
<path d="M111.539 254H103.539V253.75C104.106 253.75 104.539 253.7 104.839 253.6C105.172 253.467 105.406 253.25 105.539 252.95C105.706 252.65 105.806 252.267 105.839 251.8C105.872 251.333 105.889 250.75 105.889 250.05V222.95C105.889 222.25 105.872 221.667 105.839 221.2C105.806 220.7 105.706 220.317 105.539 220.05C105.406 219.75 105.172 219.55 104.839 219.45C104.539 219.317 104.106 219.25 103.539 219.25V219H113.839C115.772 219 117.672 219.1 119.539 219.3C121.439 219.5 123.122 219.967 124.589 220.7C126.089 221.4 127.289 222.467 128.189 223.9C129.122 225.3 129.589 227.217 129.589 229.65C129.589 232.083 129.122 234.033 128.189 235.5C127.256 236.967 126.039 238.1 124.539 238.9C123.039 239.7 121.356 240.233 119.489 240.5C117.622 240.733 115.739 240.85 113.839 240.85H109.239V250.05C109.239 250.75 109.239 251.333 109.239 251.8C109.272 252.267 109.356 252.65 109.489 252.95C109.656 253.217 109.889 253.417 110.189 253.55C110.522 253.65 110.972 253.7 111.539 253.7V254ZM109.239 240.55H113.839C115.439 240.55 116.972 240.433 118.439 240.2C119.939 239.967 121.256 239.467 122.389 238.7C123.556 237.933 124.472 236.833 125.139 235.4C125.839 233.967 126.189 232.05 126.189 229.65C126.189 227.25 125.839 225.367 125.139 224C124.472 222.633 123.572 221.6 122.439 220.9C121.306 220.2 119.989 219.767 118.489 219.6C116.989 219.4 115.439 219.3 113.839 219.3H109.239V240.55Z" fill="white"/>
<path d="M143.406 254H138.256L138.306 253.75C138.873 253.75 139.323 253.7 139.656 253.6C140.023 253.467 140.306 253.267 140.506 253C140.739 252.7 140.923 252.317 141.056 251.85C141.223 251.35 141.389 250.75 141.556 250.05L148.406 222.95C148.573 222.25 148.706 221.667 148.806 221.2C148.906 220.733 148.923 220.35 148.856 220.05C148.789 219.75 148.606 219.55 148.306 219.45C148.039 219.317 147.606 219.25 147.006 219.25L147.106 219H152.956L160.756 250.05C160.923 250.75 161.073 251.35 161.206 251.85C161.373 252.317 161.556 252.7 161.756 253C161.989 253.267 162.273 253.467 162.606 253.6C162.973 253.7 163.439 253.75 164.006 253.75L164.056 254H156.056L156.006 253.75C156.573 253.75 156.989 253.7 157.256 253.6C157.556 253.467 157.739 253.25 157.806 252.95C157.906 252.65 157.906 252.267 157.806 251.8C157.706 251.333 157.573 250.75 157.406 250.05L154.056 236.7H145.406L142.056 250.05C141.889 250.75 141.756 251.333 141.656 251.8C141.556 252.267 141.539 252.65 141.606 252.95C141.706 253.25 141.889 253.467 142.156 253.6C142.456 253.7 142.889 253.75 143.456 253.75L143.406 254ZM145.556 236.25H153.906L149.856 220.15C149.656 220.45 149.489 220.833 149.356 221.3C149.223 221.733 149.073 222.283 148.906 222.95L145.556 236.25Z" fill="white"/>
<path d="M186.539 254H178.539V253.75C179.106 253.75 179.539 253.7 179.839 253.6C180.172 253.467 180.406 253.25 180.539 252.95C180.706 252.65 180.806 252.267 180.839 251.8C180.872 251.333 180.889 250.75 180.889 250.05V222.95C180.889 222.25 180.872 221.667 180.839 221.2C180.806 220.7 180.706 220.317 180.539 220.05C180.406 219.75 180.172 219.55 179.839 219.45C179.539 219.317 179.106 219.25 178.539 219.25V219H188.839C190.772 219 192.672 219.1 194.539 219.3C196.439 219.5 198.122 219.967 199.589 220.7C201.089 221.4 202.289 222.467 203.189 223.9C204.122 225.3 204.589 227.217 204.589 229.65C204.589 231.25 204.389 232.633 203.989 233.8C203.589 234.933 203.022 235.917 202.289 236.75C201.589 237.583 200.739 238.267 199.739 238.8C198.772 239.3 197.722 239.7 196.589 240L200.939 250.05C201.239 250.75 201.506 251.333 201.739 251.8C201.972 252.267 202.222 252.65 202.489 252.95C202.756 253.25 203.072 253.467 203.439 253.6C203.806 253.7 204.272 253.75 204.839 253.75L204.939 254H196.939L196.839 253.75C197.406 253.75 197.822 253.7 198.089 253.6C198.356 253.467 198.489 253.267 198.489 253C198.522 252.7 198.439 252.317 198.239 251.85C198.072 251.35 197.839 250.75 197.539 250.05L193.489 240.6C192.722 240.7 191.939 240.767 191.139 240.8C190.372 240.833 189.606 240.85 188.839 240.85H184.239V250.05C184.239 250.75 184.239 251.333 184.239 251.8C184.272 252.267 184.356 252.65 184.489 252.95C184.656 253.217 184.889 253.417 185.189 253.55C185.522 253.65 185.972 253.7 186.539 253.7V254ZM184.239 240.55H188.839C190.439 240.55 191.972 240.433 193.439 240.2C194.939 239.967 196.256 239.467 197.389 238.7C198.556 237.933 199.472 236.833 200.139 235.4C200.839 233.967 201.189 232.05 201.189 229.65C201.189 227.25 200.839 225.367 200.139 224C199.472 222.633 198.572 221.6 197.439 220.9C196.306 220.2 194.989 219.767 193.489 219.6C191.989 219.4 190.439 219.3 188.839 219.3H184.239V240.55Z" fill="white"/>
<path d="M227.457 254H219.457V253.75C220.024 253.75 220.457 253.7 220.757 253.6C221.09 253.467 221.324 253.267 221.457 253C221.624 252.7 221.707 252.317 221.707 251.85C221.74 251.35 221.757 250.75 221.757 250.05V222.95C221.757 222.25 221.74 221.667 221.707 221.2C221.707 220.733 221.624 220.35 221.457 220.05C221.324 219.75 221.09 219.55 220.757 219.45C220.457 219.317 220.024 219.25 219.457 219.25V219H240.157V223.3H239.857C239.824 222.533 239.624 221.85 239.257 221.25C238.924 220.75 238.39 220.3 237.657 219.9C236.957 219.467 235.907 219.25 234.507 219.25H225.157V236.4H230.907C231.874 236.4 232.607 236.283 233.107 236.05C233.607 235.783 233.957 235.483 234.157 235.15C234.424 234.817 234.557 234.417 234.557 233.95H234.857V239.05H234.557C234.557 238.617 234.424 238.217 234.157 237.85C233.957 237.55 233.607 237.283 233.107 237.05C232.607 236.783 231.874 236.65 230.907 236.65H225.157V250.05C225.157 250.75 225.157 251.333 225.157 251.8C225.19 252.267 225.274 252.65 225.407 252.95C225.574 253.25 225.807 253.467 226.107 253.6C226.44 253.7 226.89 253.75 227.457 253.75V254Z" fill="white"/>
<path d="M256.962 222.95C256.962 222.25 256.945 221.667 256.912 221.2C256.912 220.733 256.829 220.35 256.662 220.05C256.529 219.75 256.295 219.55 255.962 219.45C255.662 219.317 255.229 219.25 254.662 219.25V219H262.662V219.25C262.095 219.25 261.645 219.317 261.312 219.45C261.012 219.583 260.779 219.8 260.612 220.1C260.479 220.367 260.395 220.733 260.362 221.2C260.362 221.667 260.362 222.25 260.362 222.95V247.25C260.362 248.25 260.462 249.167 260.662 250C260.862 250.833 261.245 251.55 261.812 252.15C262.412 252.717 263.229 253.167 264.262 253.5C265.329 253.8 266.712 253.95 268.412 253.95C269.212 253.95 270.079 253.883 271.012 253.75C271.945 253.617 272.812 253.333 273.612 252.9C274.412 252.467 275.079 251.867 275.612 251.1C276.145 250.3 276.412 249.233 276.412 247.9V225.25C276.412 223.583 276.412 222.817 276.412 222.95C276.412 222.25 276.395 221.667 276.362 221.2C276.362 220.733 276.279 220.35 276.112 220.05C275.979 219.75 275.745 219.55 275.412 219.45C275.112 219.317 274.679 219.25 274.112 219.25V219H279.212V219.25C278.645 219.25 278.195 219.317 277.862 219.45C277.562 219.583 277.329 219.8 277.162 220.1C277.029 220.367 276.945 220.733 276.912 221.2C276.912 221.667 276.912 222.25 276.912 222.95V247.9C276.912 249.933 276.229 251.5 274.862 252.6C273.529 253.667 271.395 254.2 268.462 254.2C266.162 254.2 264.262 254.05 262.762 253.75C261.262 253.45 260.079 253.017 259.212 252.45C258.379 251.883 257.795 251.167 257.462 250.3C257.129 249.4 256.962 248.383 256.962 247.25V222.95Z" fill="white"/>
<path d="M298.825 254H293.725V253.75C294.291 253.75 294.725 253.7 295.025 253.6C295.358 253.467 295.591 253.267 295.725 253C295.891 252.7 295.975 252.317 295.975 251.85C296.008 251.35 296.025 250.75 296.025 250.05V222.95C296.025 222.25 296.008 221.667 295.975 221.2C295.975 220.733 295.891 220.35 295.725 220.05C295.591 219.75 295.358 219.55 295.025 219.45C294.725 219.317 294.291 219.25 293.725 219.25V219H299.475L310.625 249.65L321.825 219H327.625V219.25C327.058 219.25 326.608 219.317 326.275 219.45C325.975 219.583 325.741 219.8 325.575 220.1C325.441 220.367 325.358 220.733 325.325 221.2C325.291 221.667 325.275 222.25 325.275 222.95V250.05C325.275 250.75 325.291 251.333 325.325 251.8C325.358 252.267 325.441 252.65 325.575 252.95C325.741 253.25 325.975 253.467 326.275 253.6C326.608 253.7 327.058 253.75 327.625 253.75V254H319.625V253.75C320.191 253.75 320.625 253.7 320.925 253.6C321.258 253.467 321.491 253.267 321.625 253C321.791 252.7 321.875 252.317 321.875 251.85C321.908 251.35 321.925 250.75 321.925 250.05V222.95C321.925 222.45 321.925 222.017 321.925 221.65C321.925 221.25 321.891 220.917 321.825 220.65C321.791 220.717 321.575 221.25 321.175 222.25C320.808 223.25 320.325 224.55 319.725 226.15C319.158 227.717 318.508 229.5 317.775 231.5C317.041 233.5 316.291 235.55 315.525 237.65C313.758 242.517 311.741 248.033 309.475 254.2H308.925C306.691 248.033 304.675 242.517 302.875 237.65C302.141 235.583 301.408 233.55 300.675 231.55C299.941 229.55 299.275 227.767 298.675 226.2C298.108 224.6 297.625 223.3 297.225 222.3C296.858 221.3 296.658 220.767 296.625 220.7C296.558 220.967 296.525 221.3 296.525 221.7C296.525 222.067 296.525 222.483 296.525 222.95V250.05C296.525 250.75 296.525 251.333 296.525 251.8C296.558 252.267 296.641 252.65 296.775 252.95C296.941 253.25 297.175 253.467 297.475 253.6C297.808 253.7 298.258 253.75 298.825 253.75V254Z" fill="white"/>
</svg>
