<svg width="252" height="63" viewBox="0 0 252 63" fill="none" xmlns="http://www.w3.org/2000/svg">
<path d="M13.8262 37C11.8912 37 10.2025 36.7213 8.76012 36.1638C7.35287 35.5716 6.13912 34.8051 5.11887 33.8644C4.09861 32.8889 3.25426 31.774 2.58582 30.5198C1.91738 29.2655 1.38966 27.959 1.00266 26.6003C0.615671 25.2067 0.351812 23.8131 0.211087 22.4195C0.0703624 21.0259 0 19.7194 0 18.5C0 17.2806 0.0703624 15.9741 0.211087 14.5805C0.351812 13.1869 0.615671 11.8107 1.00266 10.452C1.38966 9.05838 1.89979 7.73446 2.53305 6.48023C3.20149 5.22599 4.04584 4.12853 5.06609 3.18786C6.08635 2.21234 7.31769 1.44586 8.76012 0.888419C10.2025 0.29614 11.8912 0 13.8262 0C15.3742 0 16.6935 0.20904 17.7841 0.62712C18.8747 1.01036 19.7894 1.4807 20.5282 2.03814C21.3022 2.59557 21.9355 3.18785 22.428 3.81497C22.9557 4.40725 23.3955 4.92985 23.7473 5.38277V11.3927C23.1844 10.1384 22.6215 8.84934 22.0586 7.52543C21.4957 6.20151 20.8449 4.99953 20.1061 3.91949C19.3673 2.83946 18.5053 1.96846 17.5202 1.3065C16.5352 0.609699 15.3038 0.27872 13.8262 0.313561C12.419 0.348401 11.0821 0.76648 9.81556 1.5678C8.58421 2.33428 7.51119 3.48399 6.59648 5.01695C5.68176 6.54991 4.94296 8.44868 4.38006 10.7133C3.85234 12.943 3.58848 15.5386 3.58848 18.5C3.58848 24.4576 4.43283 28.9868 6.12153 32.0876C7.84541 35.1535 10.4136 36.6864 13.8262 36.6864C15.3038 36.6864 16.5352 36.3555 17.5202 35.6935C18.5053 34.9967 19.3673 34.1083 20.1061 33.0282C20.8449 31.9482 21.4957 30.7637 22.0586 29.4746C22.6215 28.1507 25.3082 19.9418 25.8711 18.6875L27.1886 25.6073C26.8368 26.0603 22.9557 32.6102 22.428 33.2373C21.9355 33.8296 21.3022 34.4044 20.5282 34.9619C19.7894 35.5193 18.8747 36.0071 17.7841 36.4251C16.6935 36.8084 15.3742 37 13.8262 37Z" fill="white"/>
<path d="M38.9052 37C36.8647 37 35.0353 36.5122 33.4169 35.5367C31.8338 34.5612 30.4793 33.2373 29.3535 31.565C28.2277 29.8927 27.3658 27.9416 26.7677 25.7119C26.1696 23.4473 25.8706 21.0433 25.8706 18.5C25.8706 15.9218 26.1696 13.5179 26.7677 11.2881C27.4009 9.02354 28.2805 7.05509 29.4063 5.38277C30.5321 3.71045 31.8865 2.40395 33.4697 1.46328C35.088 0.487759 36.8999 0 38.9052 0C40.9105 0 42.7048 0.487759 44.2879 1.46328C45.9062 2.40395 47.2783 3.71045 48.4041 5.38277C49.5299 7.05509 50.3918 9.02354 50.9899 11.2881C51.6232 13.5179 51.9398 15.9218 51.9398 18.5C51.9398 21.0433 51.6408 23.4473 51.0427 25.7119C50.4446 27.9416 49.5827 29.8927 48.4569 31.565C47.3311 33.2373 45.959 34.5612 44.3407 35.5367C42.7575 36.5122 40.9457 37 38.9052 37ZM38.9052 0.313561C37.2165 0.313561 35.7741 0.80132 34.5779 1.77684C33.3817 2.71752 32.3967 4.00659 31.6227 5.64407C30.8839 7.28155 30.3386 9.21516 29.9868 11.4449C29.6349 13.6398 29.459 15.9915 29.459 18.5C29.459 21.0085 29.6349 23.3776 29.9868 25.6073C30.3386 27.8023 30.8839 29.7185 31.6227 31.3559C32.3967 32.9934 33.3817 34.2999 34.5779 35.2754C35.7741 36.2161 37.2165 36.6864 38.9052 36.6864C40.5939 36.6864 42.0363 36.2161 43.2325 35.2754C44.4638 34.2999 45.4489 32.9934 46.1877 31.3559C46.9617 29.7185 47.5246 27.8023 47.8764 25.6073C48.2282 23.3776 48.4041 21.0085 48.4041 18.5C48.4041 15.9915 48.2282 13.6398 47.8764 11.4449C47.5246 9.21516 46.9617 7.28155 46.1877 5.64407C45.4137 4.00659 44.4286 2.71752 43.2325 1.77684C42.0363 0.80132 40.5939 0.313561 38.9052 0.313561Z" fill="white"/>
<path d="M67.8864 37C65.9514 37 64.2627 36.7213 62.8203 36.1638C61.413 35.5716 60.1993 34.8051 59.179 33.8644C58.1588 32.8889 57.3144 31.774 56.646 30.5198C55.9776 29.2655 55.4498 27.959 55.0628 26.6003C54.6758 25.2067 54.412 23.8131 54.2713 22.4195C54.1305 21.0259 54.0602 19.7194 54.0602 18.5C54.0602 17.2806 54.1305 15.9741 54.2713 14.5805C54.412 13.1869 54.6758 11.8107 55.0628 10.452C55.4498 9.05838 55.96 7.73446 56.5932 6.48023C57.2617 5.22599 58.106 4.12853 59.1263 3.18786C60.1465 2.21234 61.3779 1.44586 62.8203 0.888419C64.2627 0.29614 65.9514 0 67.8864 0C69.4344 0 70.7537 0.20904 71.8443 0.62712C72.9349 1.01036 73.8496 1.4807 74.5884 2.03814C75.3624 2.59557 75.9957 3.18785 76.4882 3.81497C77.0159 4.40725 77.4557 4.92985 77.8075 5.38277V11.3927C77.2446 10.1384 76.6817 8.84934 76.1188 7.52543C75.5559 6.20151 74.905 4.99953 74.1662 3.91949C73.4274 2.83946 72.5655 1.96846 71.5804 1.3065C70.5953 0.609699 69.364 0.27872 67.8864 0.313561C66.4791 0.348401 65.1423 0.76648 63.8757 1.5678C62.6444 2.33428 61.5714 3.48399 60.6567 5.01695C59.7419 6.54991 59.0031 8.44868 58.4402 10.7133C57.9125 12.943 57.6487 15.5386 57.6487 18.5C57.6487 24.4576 58.493 28.9868 60.1817 32.0876C61.9056 35.1535 64.4738 36.6864 67.8864 36.6864C69.364 36.6864 70.5953 36.3555 71.5804 35.6935C72.5655 34.9967 73.4274 34.1083 74.1662 33.0282C74.905 31.9482 75.5559 30.7637 76.1188 29.4746C76.6817 28.1507 79.4751 22.3427 80.038 21.0885L81.5558 27.9583C83.7863 22.9414 77.0159 32.6102 76.4882 33.2373C75.9957 33.8296 75.3624 34.4044 74.5884 34.9619C73.8496 35.5193 72.9349 36.0071 71.8443 36.4251C70.7537 36.8084 69.4344 37 67.8864 37Z" fill="white"/>
<path d="M92.9654 37C90.9249 37 89.0954 36.5122 87.4771 35.5367C85.8939 34.5612 84.5395 33.2373 83.4137 31.565C82.2879 29.8927 81.4259 27.9416 80.8279 25.7119C80.2298 23.4473 79.9307 21.0433 79.9307 18.5C79.9307 15.9218 80.2298 13.5179 80.8279 11.2881C81.4611 9.02354 82.3406 7.05509 83.4664 5.38277C84.5922 3.71045 85.9467 2.40395 87.5299 1.46328C89.1482 0.487759 90.96 0 92.9654 0C94.9707 0 96.7649 0.487759 98.3481 1.46328C99.9664 2.40395 101.338 3.71045 102.464 5.38277C103.59 7.05509 104.452 9.02354 105.05 11.2881C105.683 13.5179 106 15.9218 106 18.5C106 21.0433 105.701 23.4473 105.103 25.7119C104.505 27.9416 103.643 29.8927 102.517 31.565C101.391 33.2373 100.019 34.5612 98.4009 35.5367C96.8177 36.5122 95.0059 37 92.9654 37ZM92.9654 0.313561C91.2767 0.313561 89.8342 0.80132 88.6381 1.77684C87.4419 2.71752 86.4568 4.00659 85.6829 5.64407C84.9441 7.28155 84.3987 9.21516 84.0469 11.4449C83.6951 13.6398 83.5192 15.9915 83.5192 18.5C83.5192 21.0085 83.6951 23.3776 84.0469 25.6073C84.3987 27.8023 84.9441 29.7185 85.6829 31.3559C86.4568 32.9934 87.4419 34.2999 88.6381 35.2754C89.8342 36.2161 91.2767 36.6864 92.9654 36.6864C94.6541 36.6864 96.0965 36.2161 97.2927 35.2754C98.524 34.2999 99.5091 32.9934 100.248 31.3559C101.022 29.7185 101.585 27.8023 101.937 25.6073C102.288 23.3776 102.464 21.0085 102.464 18.5C102.464 15.9915 102.288 13.6398 101.937 11.4449C101.585 9.21516 101.022 7.28155 100.248 5.64407C99.4739 4.00659 98.4888 2.71752 97.2927 1.77684C96.0965 0.80132 94.6541 0.313561 92.9654 0.313561Z" fill="white"/>
<path d="M104.869 63C102.928 63 101.234 62.7213 99.7872 62.1638C98.3756 61.5716 97.1581 60.8051 96.1347 59.8644C95.1113 58.8889 94.2643 57.774 93.5938 56.5198C92.9233 55.2655 92.394 53.959 92.0058 52.6003C91.6176 51.2067 91.3529 49.8131 91.2117 48.4195C91.0706 47.0259 91 45.7194 91 44.5C91 43.2806 91.0706 41.9741 91.2117 40.5805C91.3529 39.1869 91.6176 37.8107 92.0058 36.452C92.394 35.0584 92.9057 33.7345 93.5409 32.4802C94.2114 31.226 95.0583 30.1285 96.0818 29.1879C97.1052 28.2123 98.3403 27.4459 99.7872 26.8884C101.234 26.2961 102.928 26 104.869 26C106.422 26 107.745 26.209 108.839 26.6271C109.933 27.0104 110.851 27.4807 111.592 28.0381C112.368 28.5956 113.003 29.1879 113.497 29.815C114.027 30.4073 114.468 30.9299 114.821 31.3828V37.3927C114.256 36.1384 113.691 34.8493 113.127 33.5254C112.562 32.2015 111.909 30.9995 111.168 29.9195C110.427 28.8395 109.563 27.9685 108.574 27.3065C107.586 26.6097 106.351 26.2787 104.869 26.3136C103.457 26.3484 102.116 26.7665 100.846 27.5678C99.6108 28.3343 98.5344 29.484 97.6169 31.0169C96.6993 32.5499 95.9582 34.4487 95.3936 36.7133C94.8643 38.943 94.5996 41.5386 94.5996 44.5C94.5996 50.4576 95.4465 54.9868 97.1405 58.0876C98.8697 61.1535 101.446 62.6864 104.869 62.6864C106.351 62.6864 107.586 62.3555 108.574 61.6935C109.563 60.9967 110.427 60.1083 111.168 59.0282C111.909 57.9482 112.562 56.7637 113.127 55.4746C113.691 54.1507 114.256 52.8616 114.821 51.6073V57.6172C114.468 58.0701 114.027 58.6102 113.497 59.2373C113.003 59.8296 112.368 60.4044 111.592 60.9619C110.851 61.5193 109.933 62.0071 108.839 62.4251C107.745 62.8084 106.422 63 104.869 63Z" fill="white"/>
<path d="M125.42 62.791H116.951V62.5297C117.55 62.5297 118.009 62.4774 118.327 62.3729C118.68 62.2335 118.927 62.0245 119.068 61.7458C119.244 61.4322 119.333 61.0315 119.333 60.5438C119.368 60.0212 119.386 59.3941 119.386 58.6624V30.3376C119.386 29.6059 119.368 28.9962 119.333 28.5085C119.333 28.0207 119.244 27.6201 119.068 27.3065C118.927 26.9929 118.68 26.7839 118.327 26.6794C118.009 26.54 117.55 26.4703 116.951 26.4703V26.209H125.42V26.4703C124.82 26.4703 124.344 26.54 123.991 26.6794C123.673 26.8187 123.426 27.0452 123.25 27.3588C123.109 27.6375 123.02 28.0207 122.985 28.5085C122.985 28.9962 122.985 29.6059 122.985 30.3376V44.2387H138.442V30.3376C138.442 29.6059 138.424 28.9962 138.389 28.5085C138.389 28.0207 138.301 27.6201 138.125 27.3065C137.983 26.9929 137.736 26.7839 137.383 26.6794C137.066 26.54 136.589 26.4703 135.954 26.4703V26.209H144.477V26.4703C143.841 26.4703 143.347 26.54 142.995 26.6794C142.677 26.8187 142.43 27.0452 142.253 27.3588C142.112 27.6375 142.024 28.0207 141.989 28.5085C141.989 28.9962 141.989 29.6059 141.989 30.3376V58.6624C141.989 59.3941 141.989 60.0038 141.989 60.4915C142.024 60.9793 142.112 61.3799 142.253 61.6935C142.43 62.0071 142.677 62.2335 142.995 62.3729C143.347 62.4774 143.841 62.5297 144.477 62.5297V62.791H135.954V62.5297C136.589 62.5297 137.066 62.4774 137.383 62.3729C137.736 62.2335 137.983 62.0245 138.125 61.7458C138.301 61.4322 138.389 61.0315 138.389 60.5438C138.424 60.0212 138.442 59.3941 138.442 58.6624V44.709H122.985V58.6624C122.985 59.3941 122.985 60.0038 122.985 60.4915C123.02 60.9793 123.109 61.3799 123.25 61.6935C123.426 62.0071 123.673 62.2335 123.991 62.3729C124.344 62.4774 124.82 62.5297 125.42 62.5297V62.791Z" fill="white"/>
<path d="M152.024 62.791H146.571L146.624 62.5297C147.224 62.5297 147.701 62.4774 148.054 62.3729C148.442 62.2335 148.742 62.0245 148.953 61.7458C149.2 61.4322 149.395 61.0315 149.536 60.5438C149.712 60.0212 149.889 59.3941 150.065 58.6624L157.317 30.3376C157.494 29.6059 157.635 28.9962 157.741 28.5085C157.846 28.0207 157.864 27.6201 157.794 27.3065C157.723 26.9929 157.529 26.7839 157.211 26.6794C156.929 26.54 156.47 26.4703 155.835 26.4703L155.941 26.209H162.134L170.392 58.6624C170.569 59.3941 170.727 60.0212 170.868 60.5438C171.045 61.0315 171.239 61.4322 171.451 61.7458C171.698 62.0245 171.998 62.2335 172.351 62.3729C172.739 62.4774 173.233 62.5297 173.833 62.5297L173.886 62.791H165.416L165.363 62.5297C165.963 62.5297 166.404 62.4774 166.687 62.3729C167.004 62.2335 167.198 62.0071 167.269 61.6935C167.375 61.3799 167.375 60.9793 167.269 60.4915C167.163 60.0038 167.022 59.3941 166.845 58.6624L163.299 44.709H154.141L150.594 58.6624C150.418 59.3941 150.277 60.0038 150.171 60.4915C150.065 60.9793 150.047 61.3799 150.118 61.6935C150.224 62.0071 150.418 62.2335 150.7 62.3729C151.018 62.4774 151.477 62.5297 152.077 62.5297L152.024 62.791ZM154.3 44.2387H163.14L158.852 27.411C158.641 27.7246 158.464 28.1252 158.323 28.613C158.182 29.0659 158.023 29.6408 157.846 30.3376L154.3 44.2387Z" fill="white"/>
<path d="M181.438 62.791H175.985V62.5297C176.585 62.5297 177.044 62.4774 177.362 62.3729C177.715 62.2335 177.962 62.0245 178.103 61.7458C178.279 61.4322 178.385 61.0315 178.42 60.5438C178.456 60.0212 178.473 59.3941 178.473 58.6624V30.3376C178.473 29.6059 178.456 28.9962 178.42 28.5085C178.385 28.0207 178.279 27.6201 178.103 27.3065C177.962 26.9929 177.715 26.7839 177.362 26.6794C177.044 26.54 176.585 26.4703 175.985 26.4703V26.209H182.073L198.695 56.4153V30.3376C198.695 29.6059 198.677 28.9962 198.642 28.5085C198.642 28.0207 198.553 27.6201 198.377 27.3065C198.236 26.9929 197.989 26.7839 197.636 26.6794C197.318 26.54 196.859 26.4703 196.26 26.4703V26.209H201.659V26.4703C201.059 26.4703 200.583 26.54 200.23 26.6794C199.912 26.8187 199.665 27.0452 199.489 27.3588C199.347 27.6375 199.259 28.0207 199.224 28.5085C199.224 28.9962 199.224 29.6059 199.224 30.3376V63H198.8C195.236 56.5198 192.025 50.7015 189.166 45.5452C187.966 43.3503 186.767 41.2076 185.567 39.1172C184.402 36.992 183.361 35.0932 182.443 33.4209C181.526 31.7486 180.767 30.3898 180.167 29.3446C179.567 28.2994 179.232 27.742 179.162 27.6723C179.056 27.951 178.985 28.3169 178.95 28.7698C178.95 29.2227 178.95 29.7453 178.95 30.3376V58.6624C178.95 59.3941 178.967 60.0038 179.003 60.4915C179.038 60.9793 179.126 61.3799 179.267 61.6935C179.444 62.0071 179.691 62.2335 180.008 62.3729C180.361 62.4774 180.838 62.5297 181.438 62.5297V62.791Z" fill="white"/>
<path d="M226.824 62.791H203.797V62.5297C204.397 62.5297 204.856 62.4774 205.173 62.3729C205.526 62.2335 205.773 62.0245 205.914 61.7458C206.091 61.4322 206.179 61.0315 206.179 60.5438C206.214 60.0212 206.232 59.3941 206.232 58.6624V30.3376C206.232 29.6059 206.214 28.9962 206.179 28.5085C206.179 28.0207 206.091 27.6201 205.914 27.3065C205.773 26.9929 205.526 26.7839 205.173 26.6794C204.856 26.54 204.397 26.4703 203.797 26.4703V26.209H225.712V30.7034H225.394C225.359 29.9021 225.147 29.1879 224.759 28.5607C224.406 28.0381 223.842 27.5678 223.065 27.1497C222.324 26.6968 221.213 26.4703 219.73 26.4703H209.832V40.9463H215.919C216.942 40.9463 217.719 40.8244 218.248 40.5805C218.778 40.3018 219.148 40.0056 219.36 39.6921C219.642 39.3089 219.783 38.8908 219.783 38.4379H220.101V43.7161H219.783C219.783 43.2632 219.642 42.8451 219.36 42.4619C219.148 42.1483 218.778 41.8696 218.248 41.6257C217.719 41.347 216.942 41.2076 215.919 41.2076H209.832L209.726 62.5297H220.842C222.324 62.5297 223.436 62.3206 224.177 61.9025C224.918 61.4496 225.465 60.9444 225.818 60.387C226.241 59.7947 226.471 59.0979 226.506 58.2966H226.824V62.791Z" fill="white"/>
<path d="M252 62.791H228.92V62.5297C229.52 62.5297 229.979 62.4774 230.297 62.3729C230.65 62.2335 230.897 62.0245 231.038 61.7458C231.214 61.4322 231.302 61.0315 231.302 60.5438C231.338 60.0212 231.355 59.3941 231.355 58.6624V30.3376C231.355 29.6059 231.338 28.9962 231.302 28.5085C231.302 28.0207 231.214 27.6201 231.038 27.3065C230.897 26.9929 230.65 26.7839 230.297 26.6794C229.979 26.54 229.52 26.4703 228.92 26.4703V26.209H237.39V26.4703C236.79 26.4703 236.314 26.54 235.961 26.6794C235.643 26.8187 235.396 27.0452 235.22 27.3588C235.078 27.6375 234.99 28.0207 234.955 28.5085C234.955 28.9962 234.955 29.6059 234.955 30.3376V62.5297H246.018C247.501 62.5297 248.612 62.3206 249.353 61.9025C250.13 61.4496 250.694 60.9444 251.047 60.387C251.435 59.7947 251.647 59.0979 251.682 58.2966H252V62.791Z" fill="white"/>
<path d="M6.30578 58.6733C6.30578 59.2411 6.231 59.7739 6.08146 60.2717C5.94022 60.7617 5.73252 61.1894 5.45836 61.555C5.18419 61.9206 4.85187 62.2083 4.4614 62.4183C4.07923 62.6283 3.64721 62.7333 3.16535 62.7333H0.24924V62.675C0.390476 62.675 0.49848 62.6633 0.573252 62.64C0.656332 62.6089 0.714488 62.5622 0.74772 62.5C0.78926 62.43 0.81003 62.3406 0.81003 62.2317C0.818338 62.115 0.822492 61.975 0.822492 61.8117V55.4883C0.822492 55.325 0.818338 55.1889 0.81003 55.08C0.81003 54.9711 0.78926 54.8817 0.74772 54.8117C0.714488 54.7417 0.656332 54.695 0.573252 54.6717C0.49848 54.6406 0.390476 54.625 0.24924 54.625V54.5667H3.16535C3.63891 54.5667 4.06677 54.6756 4.44894 54.8933C4.83941 55.1033 5.17173 55.395 5.4459 55.7683C5.72006 56.1417 5.93191 56.5772 6.08146 57.075C6.231 57.5728 6.30578 58.1056 6.30578 58.6733ZM1.66991 61.8117C1.66991 61.975 1.66991 62.1111 1.66991 62.22C1.67822 62.3211 1.69899 62.4067 1.73222 62.4767C1.76545 62.5389 1.8153 62.5856 1.88176 62.6167C1.95653 62.6478 2.06038 62.6633 2.19331 62.6633H3.16535C3.56413 62.6633 3.90892 62.5622 4.1997 62.36C4.49048 62.15 4.72725 61.8661 4.91003 61.5083C5.10111 61.1428 5.2382 60.7189 5.32128 60.2367C5.41266 59.7544 5.45836 59.2333 5.45836 58.6733C5.45836 58.1133 5.41266 57.5883 5.32128 57.0983C5.2382 56.6083 5.10111 56.1806 4.91003 55.815C4.72725 55.4494 4.49048 55.1617 4.1997 54.9517C3.90892 54.7417 3.56413 54.6367 3.16535 54.6367H2.24316C2.10192 54.6367 1.98977 54.6522 1.90669 54.6833C1.83192 54.7067 1.77376 54.7533 1.73222 54.8233C1.69899 54.8856 1.67822 54.9711 1.66991 55.08C1.66991 55.1889 1.66991 55.325 1.66991 55.4883V61.8117Z" fill="white"/>
<path d="M15.3453 62.7333H9.92433V62.675C10.0656 62.675 10.1736 62.6633 10.2483 62.64C10.3314 62.6089 10.3896 62.5622 10.4228 62.5C10.4644 62.43 10.4851 62.3406 10.4851 62.2317C10.4934 62.115 10.4976 61.975 10.4976 61.8117V55.4883C10.4976 55.325 10.4934 55.1889 10.4851 55.08C10.4851 54.9711 10.4644 54.8817 10.4228 54.8117C10.3896 54.7417 10.3314 54.695 10.2483 54.6717C10.1736 54.6406 10.0656 54.625 9.92433 54.625V54.5667H15.0836V55.57H15.0088C15.0005 55.3911 14.9507 55.2317 14.8593 55.0917C14.7762 54.975 14.6433 54.87 14.4605 54.7767C14.286 54.6756 14.0243 54.625 13.6754 54.625H11.345V57.8567H12.7781C13.0191 57.8567 13.2018 57.8294 13.3265 57.775C13.4511 57.7128 13.5383 57.6467 13.5882 57.5767C13.6546 57.4911 13.6879 57.3978 13.6879 57.2967H13.7626V58.475H13.6879C13.6879 58.3739 13.6546 58.2806 13.5882 58.195C13.5383 58.125 13.4511 58.0628 13.3265 58.0083C13.2018 57.9461 13.0191 57.915 12.7781 57.915H11.345L11.3201 62.675H13.9371C14.286 62.675 14.5477 62.6283 14.7222 62.535C14.8967 62.4339 15.0254 62.3211 15.1085 62.1967C15.2082 62.0644 15.2622 61.9089 15.2705 61.73H15.3453V62.7333Z" fill="white"/>
<path d="M27.8 62.7333H25.8061V62.675C25.9473 62.675 26.0553 62.6633 26.1301 62.64C26.2132 62.6089 26.2713 62.5583 26.3046 62.4883C26.3461 62.4183 26.371 62.3289 26.3793 62.22C26.3876 62.1111 26.3918 61.975 26.3918 61.8117V55.4883C26.3918 55.325 26.3876 55.1889 26.3793 55.08C26.371 54.9633 26.3461 54.8739 26.3046 54.8117C26.2713 54.7417 26.2132 54.695 26.1301 54.6717C26.0553 54.6406 25.9473 54.625 25.8061 54.625V54.5667H28.3733C28.8551 54.5667 29.3287 54.59 29.7939 54.6367C30.2675 54.6833 30.687 54.7922 31.0526 54.9633C31.4265 55.1267 31.7255 55.3756 31.9499 55.71C32.1825 56.0367 32.2988 56.4839 32.2988 57.0517C32.2988 57.6194 32.1825 58.0744 31.9499 58.4167C31.7172 58.7589 31.414 59.0233 31.0401 59.21C30.6663 59.3967 30.2467 59.5211 29.7815 59.5833C29.3162 59.6378 28.8468 59.665 28.3733 59.665H27.2268V61.8117C27.2268 61.975 27.2268 62.1111 27.2268 62.22C27.2351 62.3289 27.2558 62.4183 27.2891 62.4883C27.3306 62.5506 27.3888 62.5972 27.4635 62.6283C27.5466 62.6517 27.6588 62.6633 27.8 62.6633V62.7333ZM27.2268 59.595H28.3733C28.772 59.595 29.1542 59.5678 29.5198 59.5133C29.8936 59.4589 30.2218 59.3422 30.5043 59.1633C30.795 58.9844 31.0235 58.7278 31.1897 58.3933C31.3641 58.0589 31.4514 57.6117 31.4514 57.0517C31.4514 56.4917 31.3641 56.0522 31.1897 55.7333C31.0235 55.4144 30.7992 55.1733 30.5167 55.01C30.2343 54.8467 29.9061 54.7456 29.5322 54.7067C29.1584 54.66 28.772 54.6367 28.3733 54.6367H27.2268V59.595Z" fill="white"/>
<path d="M35.7425 62.7333H34.4589L34.4714 62.675C34.6126 62.675 34.7248 62.6633 34.8078 62.64C34.8992 62.6089 34.9698 62.5622 35.0197 62.5C35.0779 62.43 35.1235 62.3406 35.1568 62.2317C35.1983 62.115 35.2399 61.975 35.2814 61.8117L36.9887 55.4883C37.0302 55.325 37.0635 55.1889 37.0884 55.08C37.1133 54.9711 37.1175 54.8817 37.1009 54.8117C37.0842 54.7417 37.0385 54.695 36.9638 54.6717C36.8973 54.6406 36.7893 54.625 36.6398 54.625L36.6647 54.5667H38.1227L40.0668 61.8117C40.1083 61.975 40.1457 62.115 40.179 62.2317C40.2205 62.3406 40.2662 62.43 40.3161 62.5C40.3742 62.5622 40.4448 62.6089 40.5279 62.64C40.6193 62.6633 40.7356 62.675 40.8768 62.675L40.8893 62.7333H38.8954L38.8829 62.675C39.0242 62.675 39.128 62.6633 39.1945 62.64C39.2692 62.6089 39.3149 62.5583 39.3316 62.4883C39.3565 62.4183 39.3565 62.3289 39.3316 62.22C39.3066 62.1111 39.2734 61.975 39.2319 61.8117L38.3969 58.6967H36.241L35.406 61.8117C35.3645 61.975 35.3312 62.1111 35.3063 62.22C35.2814 62.3289 35.2772 62.4183 35.2939 62.4883C35.3188 62.5583 35.3645 62.6089 35.4309 62.64C35.5057 62.6633 35.6137 62.675 35.755 62.675L35.7425 62.7333ZM36.2784 58.5917H38.3595L37.3501 54.835C37.3002 54.905 37.2587 54.9944 37.2255 55.1033C37.1922 55.2044 37.1549 55.3328 37.1133 55.4883L36.2784 58.5917Z" fill="white"/>
<path d="M46.493 62.7333H44.4991V62.675C44.6403 62.675 44.7483 62.6633 44.8231 62.64C44.9062 62.6089 44.9643 62.5583 44.9976 62.4883C45.0391 62.4183 45.064 62.3289 45.0723 62.22C45.0807 62.1111 45.0848 61.975 45.0848 61.8117V55.4883C45.0848 55.325 45.0807 55.1889 45.0723 55.08C45.064 54.9633 45.0391 54.8739 44.9976 54.8117C44.9643 54.7417 44.9062 54.695 44.8231 54.6717C44.7483 54.6406 44.6403 54.625 44.4991 54.625V54.5667H47.0663C47.5481 54.5667 48.0217 54.59 48.4869 54.6367C48.9605 54.6833 49.3801 54.7922 49.7456 54.9633C50.1195 55.1267 50.4185 55.3756 50.6429 55.71C50.8755 56.0367 50.9918 56.4839 50.9918 57.0517C50.9918 57.425 50.942 57.7478 50.8423 58.02C50.7426 58.2844 50.6013 58.5139 50.4185 58.7083C50.2441 58.9028 50.0322 59.0622 49.783 59.1867C49.5421 59.3033 49.2804 59.3967 48.9979 59.4667L50.0821 61.8117C50.1568 61.975 50.2233 62.1111 50.2815 62.22C50.3396 62.3289 50.4019 62.4183 50.4684 62.4883C50.5349 62.5583 50.6138 62.6089 50.7052 62.64C50.7966 62.6633 50.9129 62.675 51.0541 62.675L51.079 62.7333H49.0851L49.0602 62.675C49.2014 62.675 49.3053 62.6633 49.3717 62.64C49.4382 62.6089 49.4714 62.5622 49.4714 62.5C49.4797 62.43 49.459 62.3406 49.4091 62.2317C49.3676 62.115 49.3094 61.975 49.2347 61.8117L48.2252 59.6067C48.0342 59.63 47.8389 59.6456 47.6395 59.6533C47.4484 59.6611 47.2574 59.665 47.0663 59.665H45.9198V61.8117C45.9198 61.975 45.9198 62.1111 45.9198 62.22C45.9281 62.3289 45.9488 62.4183 45.9821 62.4883C46.0236 62.5506 46.0818 62.5972 46.1565 62.6283C46.2396 62.6517 46.3518 62.6633 46.493 62.6633V62.7333ZM45.9198 59.595H47.0663C47.4651 59.595 47.8472 59.5678 48.2128 59.5133C48.5866 59.4589 48.9148 59.3422 49.1973 59.1633C49.4881 58.9844 49.7165 58.7278 49.8827 58.3933C50.0572 58.0589 50.1444 57.6117 50.1444 57.0517C50.1444 56.4917 50.0572 56.0522 49.8827 55.7333C49.7165 55.4144 49.4922 55.1733 49.2097 55.01C48.9273 54.8467 48.5991 54.7456 48.2252 54.7067C47.8514 54.66 47.4651 54.6367 47.0663 54.6367H45.9198V59.595Z" fill="white"/>
<path d="M56.6914 62.7333H54.6975V62.675C54.8387 62.675 54.9467 62.6633 55.0215 62.64C55.1046 62.6089 55.1627 62.5622 55.196 62.5C55.2375 62.43 55.2583 62.3406 55.2583 62.2317C55.2666 62.115 55.2707 61.975 55.2707 61.8117V55.4883C55.2707 55.325 55.2666 55.1889 55.2583 55.08C55.2583 54.9711 55.2375 54.8817 55.196 54.8117C55.1627 54.7417 55.1046 54.695 55.0215 54.6717C54.9467 54.6406 54.8387 54.625 54.6975 54.625V54.5667H59.8568V55.57H59.782C59.7737 55.3911 59.7238 55.2317 59.6325 55.0917C59.5494 54.975 59.4164 54.87 59.2337 54.7767C59.0592 54.6756 58.7975 54.625 58.4486 54.625H56.1182V58.6267H57.5513C57.7922 58.6267 57.975 58.5994 58.0996 58.545C58.2242 58.4828 58.3115 58.4128 58.3613 58.335C58.4278 58.2572 58.461 58.1639 58.461 58.055H58.5358V59.245H58.461C58.461 59.1439 58.4278 59.0506 58.3613 58.965C58.3115 58.895 58.2242 58.8328 58.0996 58.7783C57.975 58.7161 57.7922 58.685 57.5513 58.685H56.1182V61.8117C56.1182 61.975 56.1182 62.1111 56.1182 62.22C56.1265 62.3289 56.1472 62.4183 56.1805 62.4883C56.222 62.5583 56.2802 62.6089 56.3549 62.64C56.438 62.6633 56.5502 62.675 56.6914 62.675V62.7333Z" fill="white"/>
<path d="M64.0453 55.4883C64.0453 55.325 64.0411 55.1889 64.0328 55.08C64.0328 54.9711 64.012 54.8817 63.9705 54.8117C63.9373 54.7417 63.8791 54.695 63.796 54.6717C63.7213 54.6406 63.6133 54.625 63.472 54.625V54.5667H65.4659V54.625C65.3247 54.625 65.2125 54.6406 65.1295 54.6717C65.0547 54.7028 64.9965 54.7533 64.955 54.8233C64.9218 54.8856 64.901 54.9711 64.8927 55.08C64.8927 55.1889 64.8927 55.325 64.8927 55.4883V61.1583C64.8927 61.3917 64.9176 61.6056 64.9675 61.8C65.0173 61.9944 65.1128 62.1617 65.2541 62.3017C65.4036 62.4339 65.6072 62.5389 65.8647 62.6167C66.1306 62.6867 66.4754 62.7217 66.8991 62.7217C67.0985 62.7217 67.3145 62.7061 67.5471 62.675C67.7797 62.6439 67.9957 62.5778 68.1951 62.4767C68.3945 62.3756 68.5607 62.2356 68.6936 62.0567C68.8265 61.87 68.893 61.6211 68.893 61.31V56.025C68.893 55.6361 68.893 55.4572 68.893 55.4883C68.893 55.325 68.8888 55.1889 68.8805 55.08C68.8805 54.9711 68.8598 54.8817 68.8182 54.8117C68.785 54.7417 68.7268 54.695 68.6437 54.6717C68.569 54.6406 68.461 54.625 68.3197 54.625V54.5667H69.5909V54.625C69.4496 54.625 69.3375 54.6406 69.2544 54.6717C69.1796 54.7028 69.1215 54.7533 69.0799 54.8233C69.0467 54.8856 69.0259 54.9711 69.0176 55.08C69.0176 55.1889 69.0176 55.325 69.0176 55.4883V61.31C69.0176 61.7844 68.8473 62.15 68.5067 62.4067C68.1743 62.6556 67.6426 62.78 66.9115 62.78C66.3383 62.78 65.8647 62.745 65.4909 62.675C65.117 62.605 64.8221 62.5039 64.606 62.3717C64.3984 62.2394 64.253 62.0722 64.1699 61.87C64.0868 61.66 64.0453 61.4228 64.0453 61.1583V55.4883Z" fill="white"/>
<path d="M74.4791 62.7333H73.208V62.675C73.3492 62.675 73.4572 62.6633 73.532 62.64C73.615 62.6089 73.6732 62.5622 73.7064 62.5C73.748 62.43 73.7687 62.3406 73.7687 62.2317C73.7771 62.115 73.7812 61.975 73.7812 61.8117V55.4883C73.7812 55.325 73.7771 55.1889 73.7687 55.08C73.7687 54.9711 73.748 54.8817 73.7064 54.8117C73.6732 54.7417 73.615 54.695 73.532 54.6717C73.4572 54.6406 73.3492 54.625 73.208 54.625V54.5667H74.6411L77.4201 61.7183L80.2116 54.5667H81.6572V54.625C81.516 54.625 81.4038 54.6406 81.3207 54.6717C81.2459 54.7028 81.1878 54.7533 81.1462 54.8233C81.113 54.8856 81.0922 54.9711 81.0839 55.08C81.0756 55.1889 81.0715 55.325 81.0715 55.4883V61.8117C81.0715 61.975 81.0756 62.1111 81.0839 62.22C81.0922 62.3289 81.113 62.4183 81.1462 62.4883C81.1878 62.5583 81.2459 62.6089 81.3207 62.64C81.4038 62.6633 81.516 62.675 81.6572 62.675V62.7333H79.6633V62.675C79.8045 62.675 79.9125 62.6633 79.9873 62.64C80.0704 62.6089 80.1285 62.5622 80.1618 62.5C80.2033 62.43 80.2241 62.3406 80.2241 62.2317C80.2324 62.115 80.2365 61.975 80.2365 61.8117V55.4883C80.2365 55.3717 80.2365 55.2706 80.2365 55.185C80.2365 55.0917 80.2282 55.0139 80.2116 54.9517C80.2033 54.9672 80.1493 55.0917 80.0496 55.325C79.9582 55.5583 79.8377 55.8617 79.6882 56.235C79.547 56.6006 79.3849 57.0167 79.2022 57.4833C79.0194 57.95 78.8325 58.4283 78.6414 58.9183C78.2011 60.0539 77.6984 61.3411 77.1335 62.78H76.9964C76.4398 61.3411 75.9371 60.0539 75.4885 58.9183C75.3057 58.4361 75.1229 57.9617 74.9402 57.495C74.7574 57.0283 74.5912 56.6122 74.4417 56.2467C74.3005 55.8733 74.18 55.57 74.0803 55.3367C73.9889 55.1033 73.9391 54.9789 73.9307 54.9633C73.9141 55.0256 73.9058 55.1033 73.9058 55.1967C73.9058 55.2822 73.9058 55.3794 73.9058 55.4883V61.8117C73.9058 61.975 73.9058 62.1111 73.9058 62.22C73.9141 62.3289 73.9349 62.4183 73.9681 62.4883C74.0097 62.5583 74.0678 62.6089 74.1426 62.64C74.2257 62.6633 74.3378 62.675 74.4791 62.675V62.7333Z" fill="white"/>
</svg>
